<svg height='100px' width='100px'  fill="#8d6f9e" xmlns="http://www.w3.org/2000/svg" xmlns:xlink="http://www.w3.org/1999/xlink" version="1.1" x="0px" y="0px" viewBox="0 0 100 100" style="enable-background:new 0 0 100 100;" xml:space="preserve"><g><path d="M28.3,37.311c0-3.361,2.725-6.086,6.086-6.086s6.086,2.725,6.086,6.086s-2.725,6.086-6.086,6.086S28.3,40.672,28.3,37.311z    M65.037,91.915L68.775,100h-19.2l5.292-2.768l-20.479-8.244l-20.48,8.244L19.2,100H0l3.739-8.085l4.523,2.364l20.354-7.613   l-15.137-6.094l-5.243,1.615l2.22-4.801h13.362l-4.644,1.432l9.19,3.437l-0.012-29.026c0-0.441-0.361-0.799-0.806-0.799   s-0.807,0.357-0.807,0.799l0.004,13.731c0,1.216-0.986,2.201-2.202,2.201c-1.215,0-2.201-0.985-2.201-2.201l0-14.53   c0-5.93,5.392-7.984,12.046-7.986c6.654,0.002,12.046,2.057,12.046,7.986l0,14.53c0,1.216-0.985,2.201-2.201,2.201   c-1.216,0-2.202-0.985-2.202-2.201l0.003-13.731c0-0.441-0.361-0.799-0.806-0.799s-0.806,0.357-0.806,0.799l-0.012,29.026   l9.19-3.437l-4.644-1.432h13.361l2.221,4.801l-5.242-1.615l-15.138,6.094l20.354,7.613L65.037,91.915z M34.89,67.098h-1.005V84.32   l0.502,0.188l0.502-0.188V67.098z M55.118,33.869c0-1.902-1.541-3.443-3.442-3.443c-1.901,0-3.442,1.541-3.442,3.443   c0,1.9,1.541,3.441,3.442,3.441C53.577,37.311,55.118,35.77,55.118,33.869z M44.287,39.809c1.065,0,1.928-0.863,1.928-1.928   c0-1.065-0.863-1.929-1.928-1.929s-1.928,0.863-1.928,1.929C42.359,38.945,43.222,39.809,44.287,39.809z M71.031,23.499   c-1.699,0-3.076,1.378-3.076,3.076c0,1.699,1.377,3.077,3.076,3.077s3.076-1.378,3.076-3.077   C74.107,24.877,72.73,23.499,71.031,23.499z M72.43,6.355c-3.732,0-6.768,3.037-6.768,6.769h4.169c0-1.433,1.165-2.599,2.599-2.599   s2.6,1.166,2.6,2.599c0,1.434-1.166,2.599-2.6,2.599h-3.554v6.309h4.169v-2.166c3.445-0.313,6.153-3.217,6.153-6.741   C79.198,9.393,76.162,6.355,72.43,6.355z M100,17.634c0,4.906-3.746,8.937-8.533,9.39c-2.58,5.469-7.672,4.738-9.715,3.77   c-2.379,2.741-5.889,4.475-9.804,4.475s-7.425-1.733-9.806-4.475c-1.938,0.92-7.208,1.755-9.713-3.77   c-4.788-0.453-8.534-4.483-8.534-9.39c0-4.905,3.745-8.936,8.532-9.39c2.512-5.647,7.816-4.67,9.715-3.77   C64.523,1.733,68.033,0,71.948,0s7.425,1.733,9.806,4.475c1.92-0.91,6.966-1.822,9.713,3.77C96.254,8.697,100,12.729,100,17.634z    M97.521,17.586c0-7.16-7.603-7.123-7.831-7.1c-0.442-2.408-3.975-6.652-8.857-3.361c-1.947-3.695-11.45-8.807-17.778,0   c-1.003-0.922-6.841-3.306-8.856,3.361c-0.229-0.023-7.831,0.33-7.831,7.1c0,7.002,7.602,7.122,7.831,7.1   c1.065,5.76,6.807,5.021,8.856,3.36c5.106,7.725,15.386,5.169,17.778,0c1.608,1.278,6.966,2.829,8.857-3.36   C89.918,24.708,97.521,24.824,97.521,17.586z"></path></g></svg>