<svg height='100px' width='100px'  fill="#D3EAEB" xmlns="http://www.w3.org/2000/svg" xmlns:xlink="http://www.w3.org/1999/xlink" xml:space="preserve" version="1.1" style="shape-rendering:geometricPrecision;text-rendering:geometricPrecision;image-rendering:optimizeQuality;" viewBox="0 0 290 267" x="0px" y="0px" fill-rule="evenodd" clip-rule="evenodd"><defs><style type="text/css">
   
    .fil0 {fill:#D3EAEB}
   
  </style></defs><g><path class="fil0" d="M180 18c-94,7 -137,120 -76,189 -21,-4 -40,-14 -54,-29l-50 21 23 -68c-25,-93 79,-167 157,-113z"></path><path class="fil0" d="M187 27c57,0 103,47 103,104 0,31 -13,59 -35,78l13 58 -61 -34c-64,13 -122,-37 -122,-102 0,-57 46,-104 102,-104zm28 125c-17,23 -54,42 -78,19l26 -33 13 11 26 -34 -13 -10 26 -33c27,18 18,58 0,80z"></path></g></svg>