<svg height='100px' width='100px'  fill="#8D6F9E" xmlns="http://www.w3.org/2000/svg" xmlns:xlink="http://www.w3.org/1999/xlink" version="1.1" x="0px" y="0px" viewBox="0 0 100 100" enable-background="new 0 0 100 100" xml:space="preserve"><path d="M18.779,25.5c3.033,0,5.5-2.467,5.5-5.5s-2.467-5.5-5.5-5.5s-5.5,2.467-5.5,5.5S15.746,25.5,18.779,25.5z M18.779,15.5  c2.481,0,4.5,2.019,4.5,4.5s-2.019,4.5-4.5,4.5s-4.5-2.019-4.5-4.5S16.297,15.5,18.779,15.5z M18.779,54.5  c-3.033,0-5.5,2.468-5.5,5.5s2.467,5.5,5.5,5.5s5.5-2.468,5.5-5.5S21.812,54.5,18.779,54.5z M18.779,64.5  c-2.481,0-4.5-2.019-4.5-4.5s2.019-4.5,4.5-4.5s4.5,2.019,4.5,4.5S21.26,64.5,18.779,64.5z M18.779,74.5c-3.033,0-5.5,2.468-5.5,5.5  s2.467,5.5,5.5,5.5s5.5-2.468,5.5-5.5S21.812,74.5,18.779,74.5z M18.779,84.5c-2.481,0-4.5-2.019-4.5-4.5s2.019-4.5,4.5-4.5  s4.5,2.019,4.5,4.5S21.26,84.5,18.779,84.5z M29.283,38.5h57.438v3H29.283V38.5z M86.721,18.5v3H29.283v-3H86.721z M29.283,58.5  h57.438v3H29.283V58.5z M29.283,78.5h57.438v3H29.283V78.5z M34.53,54.854l1.669-3.443l-6.049-5.743l-7.172-2.123  c0.811-0.958,1.302-2.194,1.302-3.545c0-1.439-0.56-2.747-1.468-3.728c0.327-0.412,0.649-0.829,0.957-1.261  c-0.432,0.308-0.849,0.629-1.261,0.957c-0.981-0.908-2.289-1.468-3.728-1.468c-1.439,0-2.747,0.56-3.728,1.468  c-0.412-0.327-0.83-0.649-1.261-0.957c0.308,0.432,0.629,0.849,0.957,1.261c-0.908,0.981-1.468,2.289-1.468,3.728  s0.56,2.747,1.468,3.728c-0.327,0.413-0.649,0.831-0.957,1.263c0.432-0.308,0.85-0.629,1.263-0.957  c0.981,0.907,2.288,1.466,3.726,1.466c1.409,0,2.691-0.537,3.666-1.411l2.742,6.678l6.081,5.833L34.53,54.854z M33.772,54.125  l-2.34,1.252l-4.978-4.726l2.137-1.383l1.41-2.363l4.979,4.727L33.772,54.125z M23.279,40c0,1.128-0.431,2.147-1.119,2.938  c-0.856-1.018-1.758-1.99-2.685-2.937c0.926-0.949,1.828-1.921,2.684-2.939C22.847,37.852,23.279,38.872,23.279,40z M18.779,35.5  c1.128,0,2.148,0.432,2.939,1.12c-1.018,0.857-1.991,1.759-2.939,2.686c-0.948-0.927-1.921-1.829-2.939-2.686  C16.63,35.932,17.65,35.5,18.779,35.5z M14.279,40c0-1.128,0.432-2.148,1.12-2.939c0.857,1.018,1.759,1.991,2.685,2.939  c-0.927,0.948-1.829,1.921-2.686,2.938C14.71,42.148,14.279,41.128,14.279,40z M15.842,43.381c1.018-0.857,1.99-1.759,2.938-2.685  c0.947,0.926,1.919,1.828,2.937,2.685c-0.791,0.688-1.81,1.119-2.938,1.119C17.651,44.5,16.632,44.069,15.842,43.381z M24.69,46.926  l1.357-1.43l3.085,0.914l-1.281,2.146l-1.969,1.274L24.69,46.926z"></path></svg>