<svg height='100px' width='100px'  fill="#8d6f9e" xmlns="http://www.w3.org/2000/svg" data-name="Layer 1" viewBox="0 0 100 100" x="0px" y="0px"><title>78</title><g data-name="Group"><path data-name="Compound Path" d="M23.8,32.6a33.4,33.4,0,1,0,47.3,0l-.3-.3,5.8-5.8,4.3,4.3a3,3,0,0,0,4.2-4.2L72.3,13.8A3,3,0,0,0,68.1,18l4.3,4.3-6.2,6.2A33.1,33.1,0,0,0,50.5,23V16.3h6a3,3,0,0,0,0-6h-18a3,3,0,0,0,0,6h6V23A33.2,33.2,0,0,0,23.8,32.6ZM74.9,56.3a27.4,27.4,0,1,1-8-19.4A27.3,27.3,0,0,1,74.9,56.3Z"></path><path data-name="Compound Path" d="M50.5,50.2v-12a3,3,0,0,0-6,0v12a6.7,6.7,0,1,0,6,0ZM48,56.8a.7.7,0,0,1-1,0,.7.7,0,0,1,1-1A.7.7,0,0,1,48,56.8Z"></path></g></svg>